<mxfile host="app.diagrams.net" modified="2024-01-11T12:04:44.467Z" agent="Mozilla/5.0 (Macintosh; Intel Mac OS X 10_15_7) AppleWebKit/537.36 (KHTML, like Gecko) Chrome/120.0.0.0 Safari/537.36" etag="1Jw6ozW_y8Xn5BGVqqgk" version="22.1.18" type="github">
  <diagram name="Page-1" id="BcgfTJ0X8TKIs5s7FbS6">
    <mxGraphModel dx="4186" dy="5746" grid="1" gridSize="10" guides="1" tooltips="1" connect="1" arrows="1" fold="1" page="1" pageScale="1" pageWidth="827" pageHeight="1169" math="0" shadow="0">
      <root>
        <mxCell id="0" />
        <mxCell id="1" parent="0" />
        <mxCell id="sczQXrT2d03yn4BrVYgI-1" value="&lt;h1&gt;VerifiableCredential&lt;br&gt;(interface)&lt;/h1&gt;" style="text;html=1;strokeColor=none;fillColor=none;spacing=5;spacingTop=-20;whiteSpace=wrap;overflow=hidden;rounded=0;align=center;" parent="1" vertex="1">
          <mxGeometry y="-1910" width="330" height="70" as="geometry" />
        </mxCell>
        <mxCell id="VoOq1-psez8wTUffjacl-1" value="&lt;h1&gt;GitcoinPassportStamp&lt;/h1&gt;" style="text;html=1;strokeColor=none;fillColor=none;spacing=5;spacingTop=-20;whiteSpace=wrap;overflow=hidden;rounded=0;align=center;" parent="1" vertex="1">
          <mxGeometry x="-500" y="-1480" width="330" height="50" as="geometry" />
        </mxCell>
        <mxCell id="VoOq1-psez8wTUffjacl-2" value="&lt;h1&gt;GitcoinPassportStampWrapperInterface&lt;/h1&gt;" style="text;html=1;strokeColor=none;fillColor=none;spacing=5;spacingTop=-20;whiteSpace=wrap;overflow=hidden;rounded=0;align=center;" parent="1" vertex="1">
          <mxGeometry x="680" y="-1900" width="520" height="50" as="geometry" />
        </mxCell>
        <mxCell id="VoOq1-psez8wTUffjacl-3" value="&lt;h1&gt;GitcoinPassportProbabilisticStamp&lt;/h1&gt;" style="text;html=1;strokeColor=none;fillColor=none;spacing=5;spacingTop=-20;whiteSpace=wrap;overflow=hidden;rounded=0;align=center;" parent="1" vertex="1">
          <mxGeometry x="-110" y="-1600" width="550" height="50" as="geometry" />
        </mxCell>
        <mxCell id="VoOq1-psez8wTUffjacl-5" value="&lt;h1&gt;GitcoinPassportMembershipStamp&lt;/h1&gt;" style="text;html=1;strokeColor=none;fillColor=none;spacing=5;spacingTop=-20;whiteSpace=wrap;overflow=hidden;rounded=0;align=center;" parent="1" vertex="1">
          <mxGeometry x="230" y="-1480" width="550" height="50" as="geometry" />
        </mxCell>
        <mxCell id="VoOq1-psez8wTUffjacl-14" value="&lt;h1&gt;&lt;div style=&quot;color: rgb(204, 204, 204); background-color: rgb(31, 31, 31); font-family: Menlo, Monaco, &amp;quot;Courier New&amp;quot;, monospace; font-weight: normal; font-size: 12px; line-height: 18px;&quot;&gt;&lt;div&gt;{&lt;/div&gt;&lt;div&gt;  &quot;type&quot;: [&lt;span style=&quot;color: #ce9178;&quot;&gt;&quot;VerifiableCredential&quot;&lt;/span&gt;, &lt;span style=&quot;color: #ce9178;&quot;&gt;&quot;GitcoinPassportStamp&quot;&lt;/span&gt;],&lt;/div&gt;&lt;div&gt;  &lt;span style=&quot;color: #9cdcfe;&quot;&gt;&quot;@context&quot;&lt;/span&gt;: [&lt;/div&gt;&lt;div&gt;    &lt;span style=&quot;color: #ce9178;&quot;&gt;&quot;https://www.w3.org/2018/credentials/v1&quot;&lt;/span&gt;,&lt;/div&gt;&lt;div&gt;    &lt;span style=&quot;color: #ce9178;&quot;&gt;&quot;https://credentials.passport.gitcoin.co/&quot;&lt;/span&gt;&lt;/div&gt;&lt;div&gt;  ],&lt;/div&gt;&lt;div&gt;  &lt;span style=&quot;color: #9cdcfe;&quot;&gt;&quot;issuer&quot;&lt;/span&gt;: &lt;span style=&quot;color: #ce9178;&quot;&gt;&quot;...&quot;&lt;/span&gt;,&lt;/div&gt;&lt;div&gt;  &lt;span style=&quot;color: #9cdcfe;&quot;&gt;&quot;issuanceDate&quot;&lt;/span&gt;: &lt;span style=&quot;color: #ce9178;&quot;&gt;&quot;2023-10-23T13:32:52.935Z&quot;&lt;/span&gt;,&lt;/div&gt;&lt;div&gt;  &lt;span style=&quot;color: #9cdcfe;&quot;&gt;&quot;expirationDate&quot;&lt;/span&gt;: &lt;span style=&quot;color: #ce9178;&quot;&gt;&quot;2024-01-21T13:32:52.935Z&quot;&lt;/span&gt;,&lt;/div&gt;&lt;div&gt;  &lt;span style=&quot;color: #9cdcfe;&quot;&gt;&quot;credentialSubject&quot;&lt;/span&gt;: {&lt;/div&gt;&lt;div&gt;    &lt;span style=&quot;color: #9cdcfe;&quot;&gt;&quot;id&quot;&lt;/span&gt;: &lt;span style=&quot;color: #ce9178;&quot;&gt;&quot;did:pkh:eip155:1:0x0000000000000000000000000000000000000000&quot;&lt;/span&gt;,&lt;/div&gt;&lt;div&gt;    &lt;span style=&quot;color: #9cdcfe;&quot;&gt;&quot;hash&quot;&lt;/span&gt;: &lt;span style=&quot;color: #ce9178;&quot;&gt;&quot;v0.0.0:12121212121212121212121212121212121212&quot;&lt;/span&gt;,&lt;/div&gt;&lt;div&gt;    &lt;span style=&quot;color: #9cdcfe;&quot;&gt;&quot;provider&quot;&lt;/span&gt;: &lt;span style=&quot;color: #ce9178;&quot;&gt;&quot;MyProvider&quot;&lt;/span&gt;,&lt;/div&gt;&lt;div&gt;    &lt;span style=&quot;color: #9cdcfe;&quot;&gt;&quot;@context&quot;&lt;/span&gt;: []&lt;/div&gt;&lt;div&gt;  },&lt;/div&gt;&lt;div&gt;  &lt;span style=&quot;color: #9cdcfe;&quot;&gt;&quot;proof&quot;&lt;/span&gt;: {}&lt;/div&gt;&lt;div&gt;}&lt;/div&gt;&lt;/div&gt;&lt;/h1&gt;" style="text;html=1;strokeColor=none;fillColor=none;spacing=5;spacingTop=-20;whiteSpace=wrap;overflow=hidden;rounded=0;" parent="1" vertex="1">
          <mxGeometry x="-720" y="-1210" width="510" height="335" as="geometry" />
        </mxCell>
        <mxCell id="VoOq1-psez8wTUffjacl-15" style="edgeStyle=orthogonalEdgeStyle;rounded=0;orthogonalLoop=1;jettySize=auto;html=1;entryX=0.539;entryY=1;entryDx=0;entryDy=0;entryPerimeter=0;" parent="1" source="VoOq1-psez8wTUffjacl-14" target="VoOq1-psez8wTUffjacl-1" edge="1">
          <mxGeometry relative="1" as="geometry" />
        </mxCell>
        <mxCell id="VoOq1-psez8wTUffjacl-17" style="edgeStyle=orthogonalEdgeStyle;rounded=0;orthogonalLoop=1;jettySize=auto;html=1;entryX=0.5;entryY=1;entryDx=0;entryDy=0;" parent="1" source="VoOq1-psez8wTUffjacl-16" target="VoOq1-psez8wTUffjacl-3" edge="1">
          <mxGeometry relative="1" as="geometry" />
        </mxCell>
        <mxCell id="VoOq1-psez8wTUffjacl-16" value="&lt;h1&gt;&lt;div style=&quot;color: rgb(204, 204, 204); background-color: rgb(31, 31, 31); font-family: Menlo, Monaco, &amp;quot;Courier New&amp;quot;, monospace; font-weight: normal; font-size: 12px; line-height: 18px;&quot;&gt;&lt;div&gt;{&lt;/div&gt;&lt;div&gt;  &quot;type&quot;: [&lt;span style=&quot;color: #ce9178;&quot;&gt;&quot;VerifiableCredential&quot;&lt;/span&gt;, &lt;span style=&quot;color: #ce9178;&quot;&gt;&quot;GitcoinPassportProbabilisticStamp&quot;&lt;/span&gt;],&lt;/div&gt;&lt;div&gt;  &lt;span style=&quot;color: #9cdcfe;&quot;&gt;&quot;@context&quot;&lt;/span&gt;: [&lt;/div&gt;&lt;div&gt;    &lt;span style=&quot;color: #ce9178;&quot;&gt;&quot;https://www.w3.org/2018/credentials/v1&quot;&lt;/span&gt;,&lt;/div&gt;&lt;div&gt;    &lt;span style=&quot;color: #ce9178;&quot;&gt;&quot;https://credentials.passport.gitcoin.co/&quot;&lt;/span&gt;&lt;/div&gt;&lt;div&gt;  ],&lt;/div&gt;&lt;div&gt;  &lt;span style=&quot;color: #9cdcfe;&quot;&gt;&quot;issuer&quot;&lt;/span&gt;: &lt;span style=&quot;color: #ce9178;&quot;&gt;&quot;...&quot;&lt;/span&gt;,&lt;/div&gt;&lt;div&gt;  &lt;span style=&quot;color: #9cdcfe;&quot;&gt;&quot;issuanceDate&quot;&lt;/span&gt;: &lt;span style=&quot;color: #ce9178;&quot;&gt;&quot;2023-10-23T13:32:52.935Z&quot;&lt;/span&gt;,&lt;/div&gt;&lt;div&gt;  &lt;span style=&quot;color: #9cdcfe;&quot;&gt;&quot;expirationDate&quot;&lt;/span&gt;: &lt;span style=&quot;color: #ce9178;&quot;&gt;&quot;2024-01-21T13:32:52.935Z&quot;&lt;/span&gt;,&lt;/div&gt;&lt;div&gt;  &lt;span style=&quot;color: #9cdcfe;&quot;&gt;&quot;credentialSubject&quot;&lt;/span&gt;: {&lt;/div&gt;&lt;div&gt;    &lt;span style=&quot;color: #9cdcfe;&quot;&gt;&quot;id&quot;&lt;/span&gt;: &lt;span style=&quot;color: #ce9178;&quot;&gt;&quot;did:pkh:eip155:1:0x0000000000000000000000000000000000000000&quot;&lt;/span&gt;,&lt;/div&gt;&lt;div&gt;    &lt;span style=&quot;color: #9cdcfe;&quot;&gt;&quot;hash&quot;&lt;/span&gt;: &lt;span style=&quot;color: #ce9178;&quot;&gt;&quot;v0.0.0:12121212121212121212121212121212121212&quot;&lt;/span&gt;,&lt;/div&gt;&lt;div&gt;    &lt;span style=&quot;color: #9cdcfe;&quot;&gt;&quot;provider&quot;&lt;/span&gt;: &lt;span style=&quot;color: #ce9178;&quot;&gt;&quot;MyProvider&quot;&lt;/span&gt;,&lt;/div&gt;&lt;div&gt;    &lt;span style=&quot;color: #9cdcfe;&quot;&gt;&quot;probability&quot;&lt;/span&gt;: &lt;span style=&quot;color: #b5cea8;&quot;&gt;200&lt;/span&gt;,&lt;/div&gt;&lt;div&gt;    &lt;span style=&quot;color: #9cdcfe;&quot;&gt;&quot;@context&quot;&lt;/span&gt;: []&lt;/div&gt;&lt;div&gt;  },&lt;/div&gt;&lt;div&gt;  &lt;span style=&quot;color: #9cdcfe;&quot;&gt;&quot;proof&quot;&lt;/span&gt;: {}&lt;/div&gt;&lt;div&gt;}&lt;/div&gt;&lt;br&gt;&lt;/div&gt;&lt;/h1&gt;" style="text;html=1;strokeColor=none;fillColor=none;spacing=5;spacingTop=-20;whiteSpace=wrap;overflow=hidden;rounded=0;" parent="1" vertex="1">
          <mxGeometry x="-130" y="-1190" width="530" height="370" as="geometry" />
        </mxCell>
        <mxCell id="VoOq1-psez8wTUffjacl-19" style="edgeStyle=orthogonalEdgeStyle;rounded=0;orthogonalLoop=1;jettySize=auto;html=1;" parent="1" source="VoOq1-psez8wTUffjacl-18" target="VoOq1-psez8wTUffjacl-5" edge="1">
          <mxGeometry relative="1" as="geometry" />
        </mxCell>
        <mxCell id="VoOq1-psez8wTUffjacl-18" value="&lt;h1&gt;&lt;div style=&quot;color: rgb(204, 204, 204); background-color: rgb(31, 31, 31); font-family: Menlo, Monaco, &amp;quot;Courier New&amp;quot;, monospace; font-weight: normal; font-size: 12px; line-height: 18px;&quot;&gt;&lt;div&gt;{&lt;/div&gt;&lt;div&gt;  &quot;type&quot;: [&lt;span style=&quot;color: #ce9178;&quot;&gt;&quot;VerifiableCredential&quot;&lt;/span&gt;, &lt;span style=&quot;color: #ce9178;&quot;&gt;&quot;GitcoinPassportMembershipStamp&quot;&lt;/span&gt;],&lt;/div&gt;&lt;div&gt;  &lt;span style=&quot;color: #9cdcfe;&quot;&gt;&quot;@context&quot;&lt;/span&gt;: [&lt;/div&gt;&lt;div&gt;    &lt;span style=&quot;color: #ce9178;&quot;&gt;&quot;https://www.w3.org/2018/credentials/v1&quot;&lt;/span&gt;,&lt;/div&gt;&lt;div&gt;    &lt;span style=&quot;color: #ce9178;&quot;&gt;&quot;https://credentials.passport.gitcoin.co/&quot;&lt;/span&gt;&lt;/div&gt;&lt;div&gt;  ],&lt;/div&gt;&lt;div&gt;  &lt;span style=&quot;color: #9cdcfe;&quot;&gt;&quot;issuer&quot;&lt;/span&gt;: &lt;span style=&quot;color: #ce9178;&quot;&gt;&quot;...&quot;&lt;/span&gt;,&lt;/div&gt;&lt;div&gt;  &lt;span style=&quot;color: #9cdcfe;&quot;&gt;&quot;issuanceDate&quot;&lt;/span&gt;: &lt;span style=&quot;color: #ce9178;&quot;&gt;&quot;2023-10-23T13:32:52.935Z&quot;&lt;/span&gt;,&lt;/div&gt;&lt;div&gt;  &lt;span style=&quot;color: #9cdcfe;&quot;&gt;&quot;expirationDate&quot;&lt;/span&gt;: &lt;span style=&quot;color: #ce9178;&quot;&gt;&quot;2024-01-21T13:32:52.935Z&quot;&lt;/span&gt;,&lt;/div&gt;&lt;div&gt;  &lt;span style=&quot;color: #9cdcfe;&quot;&gt;&quot;credentialSubject&quot;&lt;/span&gt;: {&lt;/div&gt;&lt;div&gt;    &lt;span style=&quot;color: #9cdcfe;&quot;&gt;&quot;id&quot;&lt;/span&gt;: &lt;span style=&quot;color: #ce9178;&quot;&gt;&quot;did:pkh:eip155:1:0x0000000000000000000000000000000000000000&quot;&lt;/span&gt;,&lt;/div&gt;&lt;div&gt;    &lt;span style=&quot;color: #9cdcfe;&quot;&gt;&quot;hash&quot;&lt;/span&gt;: &lt;span style=&quot;color: #ce9178;&quot;&gt;&quot;v0.0.0:12121212121212121212121212121212121212&quot;&lt;/span&gt;,&lt;/div&gt;&lt;div&gt;    &lt;span style=&quot;color: #9cdcfe;&quot;&gt;&quot;scorerId&quot;&lt;/span&gt;: &lt;span style=&quot;color: #b5cea8;&quot;&gt;123&lt;/span&gt;,&lt;/div&gt;&lt;div&gt;    &lt;span style=&quot;color: #9cdcfe;&quot;&gt;&quot;@context&quot;&lt;/span&gt;: []&lt;/div&gt;&lt;div&gt;  },&lt;/div&gt;&lt;div&gt;  &lt;span style=&quot;color: #9cdcfe;&quot;&gt;&quot;proof&quot;&lt;/span&gt;: {}&lt;/div&gt;&lt;div&gt;}&lt;/div&gt;&lt;br&gt;&lt;/div&gt;&lt;/h1&gt;" style="text;html=1;strokeColor=none;fillColor=none;spacing=5;spacingTop=-20;whiteSpace=wrap;overflow=hidden;rounded=0;" parent="1" vertex="1">
          <mxGeometry x="540" y="-1160" width="520" height="340" as="geometry" />
        </mxCell>
        <mxCell id="VoOq1-psez8wTUffjacl-21" style="edgeStyle=orthogonalEdgeStyle;rounded=0;orthogonalLoop=1;jettySize=auto;html=1;endArrow=none;endFill=0;dashed=1;" parent="1" source="VoOq1-psez8wTUffjacl-20" target="sczQXrT2d03yn4BrVYgI-1" edge="1">
          <mxGeometry relative="1" as="geometry" />
        </mxCell>
        <mxCell id="VoOq1-psez8wTUffjacl-20" value="&lt;h1&gt;&lt;span style=&quot;background-color: initial; font-size: 12px; font-weight: normal;&quot;&gt;The base interface that any VC needs to extend.&lt;/span&gt;&lt;br&gt;&lt;/h1&gt;&lt;div&gt;&lt;span style=&quot;background-color: initial; font-size: 12px; font-weight: normal;&quot;&gt;The main purpose of having a base interface for all VCs is that all VC models can be linked together in the GitcoinPassportStampWrapperInterface&lt;/span&gt;&lt;/div&gt;" style="text;html=1;strokeColor=none;fillColor=none;spacing=5;spacingTop=-20;whiteSpace=wrap;overflow=hidden;rounded=0;" parent="1" vertex="1">
          <mxGeometry x="-580" y="-1920" width="300" height="140" as="geometry" />
        </mxCell>
        <mxCell id="VoOq1-psez8wTUffjacl-23" style="edgeStyle=orthogonalEdgeStyle;rounded=0;orthogonalLoop=1;jettySize=auto;html=1;endArrow=none;endFill=0;dashed=1;" parent="1" source="VoOq1-psez8wTUffjacl-22" target="sczQXrT2d03yn4BrVYgI-1" edge="1">
          <mxGeometry relative="1" as="geometry" />
        </mxCell>
        <mxCell id="VoOq1-psez8wTUffjacl-22" value="&lt;h1&gt;&lt;div style=&quot;color: rgb(204, 204, 204); background-color: rgb(31, 31, 31); font-family: Menlo, Monaco, &amp;quot;Courier New&amp;quot;, monospace; font-weight: normal; font-size: 12px; line-height: 18px;&quot;&gt;&lt;br&gt;&lt;div&gt;interface VerifiableCredential&lt;/div&gt;&lt;div&gt;  @createModel(description: &lt;span style=&quot;color: #ce9178;&quot;&gt;&quot;A verifiable credential interface&quot;&lt;/span&gt;) {&lt;/div&gt;&lt;div&gt;  &lt;span style=&quot;color: #9cdcfe;&quot;&gt;type:&lt;/span&gt; [String!]! &lt;span style=&quot;color: #569cd6;&quot;&gt;@string&lt;/span&gt;(&lt;span style=&quot;color: #9cdcfe;&quot;&gt;minLength:&lt;/span&gt; &lt;span style=&quot;color: #b5cea8;&quot;&gt;1&lt;/span&gt;, &lt;span style=&quot;color: #9cdcfe;&quot;&gt;maxLength:&lt;/span&gt; &lt;span style=&quot;color: #b5cea8;&quot;&gt;1024&lt;/span&gt;) &lt;span style=&quot;color: #569cd6;&quot;&gt;@list&lt;/span&gt;(&lt;span style=&quot;color: #9cdcfe;&quot;&gt;maxLength:&lt;/span&gt; &lt;span style=&quot;color: #b5cea8;&quot;&gt;1024&lt;/span&gt;)&lt;/div&gt;&lt;div&gt;  &lt;span style=&quot;color: #9cdcfe;&quot;&gt;issuer:&lt;/span&gt; String! &lt;span style=&quot;color: #569cd6;&quot;&gt;@string&lt;/span&gt;(&lt;span style=&quot;color: #9cdcfe;&quot;&gt;minLength:&lt;/span&gt; &lt;span style=&quot;color: #b5cea8;&quot;&gt;1&lt;/span&gt;, &lt;span style=&quot;color: #9cdcfe;&quot;&gt;maxLength:&lt;/span&gt; &lt;span style=&quot;color: #b5cea8;&quot;&gt;1024&lt;/span&gt;)&lt;/div&gt;&lt;div&gt;  &lt;span style=&quot;color: #9cdcfe;&quot;&gt;issuanceDate:&lt;/span&gt; DateTime!&lt;/div&gt;&lt;div&gt;  &lt;span style=&quot;color: #9cdcfe;&quot;&gt;expirationDate:&lt;/span&gt; DateTime!&lt;/div&gt;&lt;div&gt;}&lt;/div&gt;&lt;/div&gt;&lt;/h1&gt;" style="text;html=1;strokeColor=none;fillColor=none;spacing=5;spacingTop=-20;whiteSpace=wrap;overflow=hidden;rounded=0;" parent="1" vertex="1">
          <mxGeometry x="70" y="-2180" width="570" height="180" as="geometry" />
        </mxCell>
        <mxCell id="VoOq1-psez8wTUffjacl-24" value="" style="edgeStyle=entityRelationEdgeStyle;fontSize=12;html=1;endArrow=ERmandOne;startArrow=ERmandOne;rounded=0;" parent="1" source="sczQXrT2d03yn4BrVYgI-1" target="VoOq1-psez8wTUffjacl-2" edge="1">
          <mxGeometry width="100" height="100" relative="1" as="geometry">
            <mxPoint x="430" y="-1930" as="sourcePoint" />
            <mxPoint x="530" y="-2030" as="targetPoint" />
          </mxGeometry>
        </mxCell>
        <mxCell id="VoOq1-psez8wTUffjacl-25" value="Extends" style="endArrow=block;endSize=16;endFill=0;html=1;rounded=0;entryX=0.5;entryY=1;entryDx=0;entryDy=0;" parent="1" source="VoOq1-psez8wTUffjacl-3" target="sczQXrT2d03yn4BrVYgI-1" edge="1">
          <mxGeometry width="160" relative="1" as="geometry">
            <mxPoint x="-190" y="-1650" as="sourcePoint" />
            <mxPoint x="-30" y="-1650" as="targetPoint" />
          </mxGeometry>
        </mxCell>
        <mxCell id="VoOq1-psez8wTUffjacl-26" value="Extends" style="endArrow=block;endSize=16;endFill=0;html=1;rounded=0;" parent="1" source="VoOq1-psez8wTUffjacl-5" target="sczQXrT2d03yn4BrVYgI-1" edge="1">
          <mxGeometry width="160" relative="1" as="geometry">
            <mxPoint x="175" y="-1590" as="sourcePoint" />
            <mxPoint x="175" y="-1830" as="targetPoint" />
          </mxGeometry>
        </mxCell>
        <mxCell id="VoOq1-psez8wTUffjacl-27" value="Extends" style="endArrow=block;endSize=16;endFill=0;html=1;rounded=0;exitX=0.6;exitY=0.04;exitDx=0;exitDy=0;exitPerimeter=0;" parent="1" source="VoOq1-psez8wTUffjacl-1" target="sczQXrT2d03yn4BrVYgI-1" edge="1">
          <mxGeometry width="160" relative="1" as="geometry">
            <mxPoint x="495" y="-1470" as="sourcePoint" />
            <mxPoint x="203" y="-1830" as="targetPoint" />
          </mxGeometry>
        </mxCell>
        <mxCell id="VoOq1-psez8wTUffjacl-28" value="&lt;h1&gt;&lt;div style=&quot;color: rgb(204, 204, 204); background-color: rgb(31, 31, 31); font-family: Menlo, Monaco, &amp;quot;Courier New&amp;quot;, monospace; font-weight: normal; font-size: 12px; line-height: 18px;&quot;&gt;&lt;br&gt;&lt;div&gt;interface GitcoinPassportStampWrapperInterface&lt;/div&gt;&lt;div&gt;  @createModel(&lt;/div&gt;&lt;div&gt;    accountRelation: LIST&lt;/div&gt;&lt;div&gt;    &lt;span style=&quot;color: #9cdcfe;&quot;&gt;description:&lt;/span&gt; &lt;span style=&quot;color: #ce9178;&quot;&gt;&quot;Interface for GitcoinPassportStampWrapper&quot;&lt;/span&gt;&lt;/div&gt;&lt;div&gt;  ) {&lt;/div&gt;&lt;div&gt;  &lt;span style=&quot;color: #9cdcfe;&quot;&gt;vcID:&lt;/span&gt; StreamID! &lt;span style=&quot;color: #569cd6;&quot;&gt;@document&lt;/span&gt;Reference(&lt;span style=&quot;color: #9cdcfe;&quot;&gt;model:&lt;/span&gt; &lt;span style=&quot;color: #ce9178;&quot;&gt;&quot;VerifiableCredential&quot;&lt;/span&gt;)&lt;/div&gt;&lt;div&gt;  &lt;span style=&quot;color: #9cdcfe;&quot;&gt;vc:&lt;/span&gt; VerifiableCredential! &lt;span style=&quot;color: #569cd6;&quot;&gt;@relation&lt;/span&gt;Document(&lt;span style=&quot;color: #9cdcfe;&quot;&gt;property:&lt;/span&gt; &lt;span style=&quot;color: #ce9178;&quot;&gt;&quot;vcID&quot;&lt;/span&gt;)&lt;/div&gt;&lt;br&gt;&lt;div&gt;  &lt;span style=&quot;color: #9cdcfe;&quot;&gt;isDeleted:&lt;/span&gt; Boolean&lt;/div&gt;&lt;div&gt;  &lt;span style=&quot;color: #9cdcfe;&quot;&gt;isRevoked:&lt;/span&gt; Boolean&lt;/div&gt;&lt;div&gt;}&lt;/div&gt;&lt;/div&gt;&lt;/h1&gt;" style="text;html=1;strokeColor=none;fillColor=none;spacing=5;spacingTop=-20;whiteSpace=wrap;overflow=hidden;rounded=0;" parent="1" vertex="1">
          <mxGeometry x="740" y="-2250" width="480" height="230" as="geometry" />
        </mxCell>
        <mxCell id="VoOq1-psez8wTUffjacl-29" value="Extends" style="endArrow=block;endSize=16;endFill=0;html=1;rounded=0;" parent="1" source="VoOq1-psez8wTUffjacl-30" target="VoOq1-psez8wTUffjacl-2" edge="1">
          <mxGeometry width="160" relative="1" as="geometry">
            <mxPoint x="495" y="-1470" as="sourcePoint" />
            <mxPoint x="203" y="-1830" as="targetPoint" />
          </mxGeometry>
        </mxCell>
        <mxCell id="VoOq1-psez8wTUffjacl-30" value="&lt;h1&gt;GitcoinPassportStampWrapper&lt;/h1&gt;&lt;div&gt;&lt;br&gt;&lt;/div&gt;" style="text;html=1;strokeColor=none;fillColor=none;spacing=5;spacingTop=-20;whiteSpace=wrap;overflow=hidden;rounded=0;align=center;" parent="1" vertex="1">
          <mxGeometry x="710" y="-1720" width="520" height="50" as="geometry" />
        </mxCell>
        <mxCell id="VoOq1-psez8wTUffjacl-31" style="edgeStyle=orthogonalEdgeStyle;rounded=0;orthogonalLoop=1;jettySize=auto;html=1;endArrow=none;endFill=0;dashed=1;" parent="1" source="VoOq1-psez8wTUffjacl-28" target="VoOq1-psez8wTUffjacl-2" edge="1">
          <mxGeometry relative="1" as="geometry">
            <mxPoint x="1011" y="-1950" as="sourcePoint" />
            <mxPoint x="1171" y="-1820" as="targetPoint" />
          </mxGeometry>
        </mxCell>
        <mxCell id="VoOq1-psez8wTUffjacl-32" value="&lt;h1&gt;&lt;div style=&quot;color: rgb(204, 204, 204); background-color: rgb(31, 31, 31); font-family: Menlo, Monaco, &amp;quot;Courier New&amp;quot;, monospace; font-weight: normal; font-size: 12px; line-height: 18px;&quot;&gt;&lt;div style=&quot;line-height: 18px;&quot;&gt;&lt;div&gt;type GitcoinPassportStampTestWrapper implements GitcoinPassportStampWrapperInterface&lt;/div&gt;&lt;div&gt;  @createModel(&lt;/div&gt;&lt;div&gt;    &lt;span style=&quot;color: #9cdcfe;&quot;&gt;accountRelation:&lt;/span&gt; LIST&lt;/div&gt;&lt;div&gt;    &lt;span style=&quot;color: #9cdcfe;&quot;&gt;description:&lt;/span&gt; &lt;span style=&quot;color: #ce9178;&quot;&gt;&quot;Interface for GitcoinPassportStampWrapper&quot;&lt;/span&gt;&lt;/div&gt;&lt;div&gt;  ) {&lt;/div&gt;&lt;div&gt;  &lt;span style=&quot;color: #9cdcfe;&quot;&gt;vcID:&lt;/span&gt; StreamID! &lt;span style=&quot;color: #569cd6;&quot;&gt;@document&lt;/span&gt;Reference(&lt;span style=&quot;color: #9cdcfe;&quot;&gt;model:&lt;/span&gt; &lt;span style=&quot;color: #ce9178;&quot;&gt;&quot;VerifiableCredential&quot;&lt;/span&gt;)&lt;/div&gt;&lt;div&gt;  &lt;span style=&quot;color: #9cdcfe;&quot;&gt;vc:&lt;/span&gt; VerifiableCredential! &lt;span style=&quot;color: #569cd6;&quot;&gt;@relation&lt;/span&gt;Document(&lt;span style=&quot;color: #9cdcfe;&quot;&gt;property:&lt;/span&gt; &lt;span style=&quot;color: #ce9178;&quot;&gt;&quot;vcID&quot;&lt;/span&gt;)&lt;/div&gt;&lt;br&gt;&lt;div&gt;  &lt;span style=&quot;color: #9cdcfe;&quot;&gt;isDeleted:&lt;/span&gt; Boolean&lt;/div&gt;&lt;div&gt;  &lt;span style=&quot;color: #9cdcfe;&quot;&gt;isRevoked:&lt;/span&gt; Boolean&lt;/div&gt;&lt;div&gt;}&lt;/div&gt;&lt;/div&gt;&lt;/div&gt;&lt;/h1&gt;" style="text;html=1;strokeColor=none;fillColor=none;spacing=5;spacingTop=-20;whiteSpace=wrap;overflow=hidden;rounded=0;" parent="1" vertex="1">
          <mxGeometry x="880" y="-1590" width="480" height="230" as="geometry" />
        </mxCell>
        <mxCell id="VoOq1-psez8wTUffjacl-33" style="edgeStyle=orthogonalEdgeStyle;rounded=0;orthogonalLoop=1;jettySize=auto;html=1;endArrow=none;endFill=0;dashed=1;" parent="1" source="VoOq1-psez8wTUffjacl-30" target="VoOq1-psez8wTUffjacl-32" edge="1">
          <mxGeometry relative="1" as="geometry">
            <mxPoint x="990" y="-2010" as="sourcePoint" />
            <mxPoint x="950" y="-1890" as="targetPoint" />
          </mxGeometry>
        </mxCell>
        <mxCell id="VoOq1-psez8wTUffjacl-37" value="Actor" style="shape=umlActor;verticalLabelPosition=bottom;verticalAlign=top;html=1;" parent="1" vertex="1">
          <mxGeometry x="1450" y="-995" width="30" height="60" as="geometry" />
        </mxCell>
        <mxCell id="VoOq1-psez8wTUffjacl-38" value="Scorer" style="shape=umlLifeline;perimeter=lifelinePerimeter;whiteSpace=wrap;html=1;container=1;dropTarget=0;collapsible=0;recursiveResize=0;outlineConnect=0;portConstraint=eastwest;newEdgeStyle={&quot;curved&quot;:0,&quot;rounded&quot;:0};" parent="1" vertex="1">
          <mxGeometry x="1795" y="-985" width="100" height="810" as="geometry" />
        </mxCell>
        <mxCell id="VoOq1-psez8wTUffjacl-46" value="" style="html=1;points=[[0,0,0,0,5],[0,1,0,0,-5],[1,0,0,0,5],[1,1,0,0,-5]];perimeter=orthogonalPerimeter;outlineConnect=0;targetShapes=umlLifeline;portConstraint=eastwest;newEdgeStyle={&quot;curved&quot;:0,&quot;rounded&quot;:0};" parent="VoOq1-psez8wTUffjacl-38" vertex="1">
          <mxGeometry x="43" y="110" width="10" height="640" as="geometry" />
        </mxCell>
        <mxCell id="VoOq1-psez8wTUffjacl-58" value="" style="html=1;points=[[0,0,0,0,5],[0,1,0,0,-5],[1,0,0,0,5],[1,1,0,0,-5]];perimeter=orthogonalPerimeter;outlineConnect=0;targetShapes=umlLifeline;portConstraint=eastwest;newEdgeStyle={&quot;curved&quot;:0,&quot;rounded&quot;:0};" parent="VoOq1-psez8wTUffjacl-38" vertex="1">
          <mxGeometry x="48" y="440" width="10" height="180" as="geometry" />
        </mxCell>
        <mxCell id="VoOq1-psez8wTUffjacl-59" value="loadScorerConfig" style="html=1;align=left;spacingLeft=2;endArrow=block;rounded=0;edgeStyle=orthogonalEdgeStyle;curved=0;rounded=0;" parent="VoOq1-psez8wTUffjacl-38" target="VoOq1-psez8wTUffjacl-58" edge="1">
          <mxGeometry relative="1" as="geometry">
            <mxPoint x="53" y="420" as="sourcePoint" />
            <Array as="points">
              <mxPoint x="83" y="450" />
            </Array>
          </mxGeometry>
        </mxCell>
        <mxCell id="VoOq1-psez8wTUffjacl-39" value="Loader" style="shape=umlLifeline;perimeter=lifelinePerimeter;whiteSpace=wrap;html=1;container=1;dropTarget=0;collapsible=0;recursiveResize=0;outlineConnect=0;portConstraint=eastwest;newEdgeStyle={&quot;curved&quot;:0,&quot;rounded&quot;:0};" parent="1" vertex="1">
          <mxGeometry x="1940" y="-985" width="100" height="800" as="geometry" />
        </mxCell>
        <mxCell id="VoOq1-psez8wTUffjacl-51" value="" style="html=1;points=[[0,0,0,0,5],[0,1,0,0,-5],[1,0,0,0,5],[1,1,0,0,-5]];perimeter=orthogonalPerimeter;outlineConnect=0;targetShapes=umlLifeline;portConstraint=eastwest;newEdgeStyle={&quot;curved&quot;:0,&quot;rounded&quot;:0};" parent="VoOq1-psez8wTUffjacl-39" vertex="1">
          <mxGeometry x="50" y="130" width="10" height="80" as="geometry" />
        </mxCell>
        <mxCell id="VoOq1-psez8wTUffjacl-40" value="Validator" style="shape=umlLifeline;perimeter=lifelinePerimeter;whiteSpace=wrap;html=1;container=1;dropTarget=0;collapsible=0;recursiveResize=0;outlineConnect=0;portConstraint=eastwest;newEdgeStyle={&quot;curved&quot;:0,&quot;rounded&quot;:0};" parent="1" vertex="1">
          <mxGeometry x="2110" y="-985" width="100" height="790" as="geometry" />
        </mxCell>
        <mxCell id="VoOq1-psez8wTUffjacl-55" value="" style="html=1;points=[[0,0,0,0,5],[0,1,0,0,-5],[1,0,0,0,5],[1,1,0,0,-5]];perimeter=orthogonalPerimeter;outlineConnect=0;targetShapes=umlLifeline;portConstraint=eastwest;newEdgeStyle={&quot;curved&quot;:0,&quot;rounded&quot;:0};" parent="VoOq1-psez8wTUffjacl-40" vertex="1">
          <mxGeometry x="53.19" y="230" width="10" height="80" as="geometry" />
        </mxCell>
        <mxCell id="VoOq1-psez8wTUffjacl-56" value="validatStamps (includes deduplication)" style="html=1;verticalAlign=bottom;endArrow=block;curved=0;rounded=0;entryX=0;entryY=0;entryDx=0;entryDy=5;" parent="VoOq1-psez8wTUffjacl-40" target="VoOq1-psez8wTUffjacl-55" edge="1">
          <mxGeometry relative="1" as="geometry">
            <mxPoint x="-261.9996551724139" y="235" as="sourcePoint" />
          </mxGeometry>
        </mxCell>
        <mxCell id="VoOq1-psez8wTUffjacl-41" value="StampAdaptor" style="shape=umlLifeline;perimeter=lifelinePerimeter;whiteSpace=wrap;html=1;container=1;dropTarget=0;collapsible=0;recursiveResize=0;outlineConnect=0;portConstraint=eastwest;newEdgeStyle={&quot;curved&quot;:0,&quot;rounded&quot;:0};" parent="1" vertex="1">
          <mxGeometry x="2280" y="-985" width="100" height="770" as="geometry" />
        </mxCell>
        <mxCell id="VoOq1-psez8wTUffjacl-63" value="" style="html=1;points=[[0,0,0,0,5],[0,1,0,0,-5],[1,0,0,0,5],[1,1,0,0,-5]];perimeter=orthogonalPerimeter;outlineConnect=0;targetShapes=umlLifeline;portConstraint=eastwest;newEdgeStyle={&quot;curved&quot;:0,&quot;rounded&quot;:0};" parent="VoOq1-psez8wTUffjacl-41" vertex="1">
          <mxGeometry x="50" y="490" width="10" height="80" as="geometry" />
        </mxCell>
        <mxCell id="VoOq1-psez8wTUffjacl-42" value="Client / UI" style="shape=umlLifeline;perimeter=lifelinePerimeter;whiteSpace=wrap;html=1;container=1;dropTarget=0;collapsible=0;recursiveResize=0;outlineConnect=0;portConstraint=eastwest;newEdgeStyle={&quot;curved&quot;:0,&quot;rounded&quot;:0};" parent="1" vertex="1">
          <mxGeometry x="1630" y="-985" width="100" height="800" as="geometry" />
        </mxCell>
        <mxCell id="VoOq1-psez8wTUffjacl-43" value="" style="html=1;points=[[0,0,0,0,5],[0,1,0,0,-5],[1,0,0,0,5],[1,1,0,0,-5]];perimeter=orthogonalPerimeter;outlineConnect=0;targetShapes=umlLifeline;portConstraint=eastwest;newEdgeStyle={&quot;curved&quot;:0,&quot;rounded&quot;:0};" parent="VoOq1-psez8wTUffjacl-42" vertex="1">
          <mxGeometry x="50" y="80" width="10" height="720" as="geometry" />
        </mxCell>
        <mxCell id="VoOq1-psez8wTUffjacl-44" value="scorePassport" style="html=1;verticalAlign=bottom;startArrow=oval;endArrow=block;startSize=8;curved=0;rounded=0;entryX=0;entryY=0;entryDx=0;entryDy=5;" parent="VoOq1-psez8wTUffjacl-42" target="VoOq1-psez8wTUffjacl-43" edge="1">
          <mxGeometry relative="1" as="geometry">
            <mxPoint x="-80" y="85" as="sourcePoint" />
          </mxGeometry>
        </mxCell>
        <mxCell id="VoOq1-psez8wTUffjacl-47" value="score" style="html=1;verticalAlign=bottom;endArrow=block;curved=0;rounded=0;entryX=0;entryY=0;entryDx=0;entryDy=5;" parent="1" source="VoOq1-psez8wTUffjacl-43" target="VoOq1-psez8wTUffjacl-46" edge="1">
          <mxGeometry relative="1" as="geometry">
            <mxPoint x="1768" y="-879" as="sourcePoint" />
          </mxGeometry>
        </mxCell>
        <mxCell id="VoOq1-psez8wTUffjacl-48" value="return totalScore" style="html=1;verticalAlign=bottom;endArrow=open;dashed=1;endSize=8;curved=0;rounded=0;exitX=0;exitY=1;exitDx=0;exitDy=-5;" parent="1" source="VoOq1-psez8wTUffjacl-46" target="VoOq1-psez8wTUffjacl-43" edge="1">
          <mxGeometry relative="1" as="geometry">
            <mxPoint x="1768" y="-809" as="targetPoint" />
          </mxGeometry>
        </mxCell>
        <mxCell id="VoOq1-psez8wTUffjacl-52" value="loadStamps" style="html=1;verticalAlign=bottom;endArrow=block;curved=0;rounded=0;entryX=0;entryY=0;entryDx=0;entryDy=5;" parent="1" source="VoOq1-psez8wTUffjacl-38" target="VoOq1-psez8wTUffjacl-51" edge="1">
          <mxGeometry relative="1" as="geometry">
            <mxPoint x="1920" y="-850" as="sourcePoint" />
          </mxGeometry>
        </mxCell>
        <mxCell id="VoOq1-psez8wTUffjacl-53" value="return Stamp[]" style="html=1;verticalAlign=bottom;endArrow=open;dashed=1;endSize=8;curved=0;rounded=0;exitX=0;exitY=1;exitDx=0;exitDy=-5;" parent="1" source="VoOq1-psez8wTUffjacl-51" target="VoOq1-psez8wTUffjacl-38" edge="1">
          <mxGeometry relative="1" as="geometry">
            <mxPoint x="1920" y="-780" as="targetPoint" />
          </mxGeometry>
        </mxCell>
        <mxCell id="VoOq1-psez8wTUffjacl-57" value="return ValidStamps[], InvalidStamps[]" style="html=1;verticalAlign=bottom;endArrow=open;dashed=1;endSize=8;curved=0;rounded=0;exitX=0;exitY=1;exitDx=0;exitDy=-5;" parent="1" source="VoOq1-psez8wTUffjacl-55" target="VoOq1-psez8wTUffjacl-38" edge="1">
          <mxGeometry relative="1" as="geometry">
            <mxPoint x="2093.19" y="-670" as="targetPoint" />
          </mxGeometry>
        </mxCell>
        <mxCell id="VoOq1-psez8wTUffjacl-62" value="for each Stamp" style="shape=umlFrame;whiteSpace=wrap;html=1;pointerEvents=0;" parent="1" vertex="1">
          <mxGeometry x="1780" y="-525" width="590" height="140" as="geometry" />
        </mxCell>
        <mxCell id="VoOq1-psez8wTUffjacl-64" value="scoreStamp" style="html=1;verticalAlign=bottom;endArrow=block;curved=0;rounded=0;entryX=0;entryY=0;entryDx=0;entryDy=5;" parent="1" source="VoOq1-psez8wTUffjacl-58" target="VoOq1-psez8wTUffjacl-63" edge="1">
          <mxGeometry relative="1" as="geometry">
            <mxPoint x="2260" y="-490" as="sourcePoint" />
          </mxGeometry>
        </mxCell>
        <mxCell id="VoOq1-psez8wTUffjacl-65" value="return score" style="html=1;verticalAlign=bottom;endArrow=open;dashed=1;endSize=8;curved=0;rounded=0;exitX=0;exitY=1;exitDx=0;exitDy=-5;" parent="1" source="VoOq1-psez8wTUffjacl-63" target="VoOq1-psez8wTUffjacl-58" edge="1">
          <mxGeometry relative="1" as="geometry">
            <mxPoint x="2260" y="-420" as="targetPoint" />
          </mxGeometry>
        </mxCell>
        <mxCell id="VoOq1-psez8wTUffjacl-66" value="«interface»&lt;br&gt;&lt;b&gt;StampScorerAdapter&lt;br&gt;&lt;br&gt;+ scorer(...)&lt;br&gt;&lt;/b&gt;" style="html=1;whiteSpace=wrap;" parent="1" vertex="1">
          <mxGeometry x="1850" y="-1440" width="170" height="110" as="geometry" />
        </mxCell>
        <mxCell id="VoOq1-psez8wTUffjacl-70" value="GitcoinPassportStamp" style="html=1;whiteSpace=wrap;" parent="1" vertex="1">
          <mxGeometry x="1600" y="-1250" width="190" height="50" as="geometry" />
        </mxCell>
        <mxCell id="VoOq1-psez8wTUffjacl-71" value="GitcoinPassportProbabilisticStamp" style="html=1;whiteSpace=wrap;" parent="1" vertex="1">
          <mxGeometry x="1830" y="-1250" width="230" height="50" as="geometry" />
        </mxCell>
        <mxCell id="VoOq1-psez8wTUffjacl-72" value="GitcoinPassportMembershipStamp" style="html=1;whiteSpace=wrap;" parent="1" vertex="1">
          <mxGeometry x="2100" y="-1250" width="250" height="50" as="geometry" />
        </mxCell>
        <mxCell id="VoOq1-psez8wTUffjacl-73" value="" style="endArrow=block;dashed=1;endFill=0;endSize=12;html=1;rounded=0;" parent="1" source="VoOq1-psez8wTUffjacl-70" target="VoOq1-psez8wTUffjacl-66" edge="1">
          <mxGeometry width="160" relative="1" as="geometry">
            <mxPoint x="1800" y="-1110" as="sourcePoint" />
            <mxPoint x="1960" y="-1110" as="targetPoint" />
          </mxGeometry>
        </mxCell>
        <mxCell id="VoOq1-psez8wTUffjacl-74" value="" style="endArrow=block;dashed=1;endFill=0;endSize=12;html=1;rounded=0;" parent="1" source="VoOq1-psez8wTUffjacl-71" target="VoOq1-psez8wTUffjacl-66" edge="1">
          <mxGeometry width="160" relative="1" as="geometry">
            <mxPoint x="1743" y="-1240" as="sourcePoint" />
            <mxPoint x="1863" y="-1320" as="targetPoint" />
          </mxGeometry>
        </mxCell>
        <mxCell id="VoOq1-psez8wTUffjacl-75" value="" style="endArrow=block;dashed=1;endFill=0;endSize=12;html=1;rounded=0;" parent="1" source="VoOq1-psez8wTUffjacl-72" target="VoOq1-psez8wTUffjacl-66" edge="1">
          <mxGeometry width="160" relative="1" as="geometry">
            <mxPoint x="1753" y="-1230" as="sourcePoint" />
            <mxPoint x="1873" y="-1310" as="targetPoint" />
          </mxGeometry>
        </mxCell>
        <mxCell id="eA6tpxbq90cXENx7WpxA-1" value="&lt;h1&gt;GitcoinAttestation&lt;/h1&gt;&lt;h1&gt;(interface)&lt;/h1&gt;" style="text;html=1;strokeColor=none;fillColor=none;spacing=5;spacingTop=-20;whiteSpace=wrap;overflow=hidden;rounded=0;align=center;" vertex="1" parent="1">
          <mxGeometry x="-350" y="-2340" width="370" height="90" as="geometry" />
        </mxCell>
        <mxCell id="eA6tpxbq90cXENx7WpxA-2" value="Extends" style="endArrow=block;endSize=16;endFill=0;html=1;rounded=0;entryX=0.532;entryY=0.982;entryDx=0;entryDy=0;entryPerimeter=0;" edge="1" parent="1" source="sczQXrT2d03yn4BrVYgI-1" target="eA6tpxbq90cXENx7WpxA-1">
          <mxGeometry width="160" relative="1" as="geometry">
            <mxPoint x="175" y="-1590" as="sourcePoint" />
            <mxPoint x="175" y="-1830" as="targetPoint" />
          </mxGeometry>
        </mxCell>
        <mxCell id="eA6tpxbq90cXENx7WpxA-4" value="&lt;h1&gt;EASAttestation&lt;/h1&gt;" style="text;html=1;strokeColor=none;fillColor=none;spacing=5;spacingTop=-20;whiteSpace=wrap;overflow=hidden;rounded=0;align=center;" vertex="1" parent="1">
          <mxGeometry x="-620" y="-2080" width="370" height="90" as="geometry" />
        </mxCell>
        <mxCell id="eA6tpxbq90cXENx7WpxA-6" value="Extends" style="endArrow=block;endSize=16;endFill=0;html=1;rounded=0;" edge="1" parent="1" source="eA6tpxbq90cXENx7WpxA-4" target="eA6tpxbq90cXENx7WpxA-1">
          <mxGeometry width="160" relative="1" as="geometry">
            <mxPoint x="145" y="-1900" as="sourcePoint" />
            <mxPoint x="-143" y="-2242" as="targetPoint" />
          </mxGeometry>
        </mxCell>
      </root>
    </mxGraphModel>
  </diagram>
</mxfile>
